<?xml version="1.0" encoding="utf-8"?>
<!-- Generator: Adobe Illustrator 24.1.0, SVG Export Plug-In . SVG Version: 6.00 Build 0)  -->
<svg version="1.1" id="Layer_1" xmlns="http://www.w3.org/2000/svg" xmlns:xlink="http://www.w3.org/1999/xlink" x="0px" y="0px"
	 viewBox="0 0 459.7 275.5" style="enable-background:new 0 0 459.7 275.5;" xml:space="preserve">
<style type="text/css">
	.st0{fill:#0058A9;}
</style>
<g>
	<path class="st0" d="M102.9,83.7c0,0-8.8-34.9-40.4-8.8c0,0-34.6,30.8-33.4,83.8c0,0,1,30.8,21.8,31.6c0,0-22.2-0.2-19.3-43.7
		c0,0,6.5-58.8,45.6-76.7C77.3,70,94.5,63.4,102.9,83.7z"/>
	<path class="st0" d="M92.9,80.1c0,0-20-15.5-45,40.1c0,0-18.4,50.6,4.4,61.7c0,0-1.5-6.3-1.3-12.8C51,169.1,52.6,106.2,92.9,80.1z"
		/>
	<path class="st0" d="M64.6,228.4c-1.6,6.8-5,11.8-7.6,11.2c-2.6-0.6-3.4-6.6-1.8-13.4c1.6-6.8,5-11.8,7.6-11.2
		C65.3,215.6,66.2,221.6,64.6,228.4z"/>
	<path class="st0" d="M28.3,236.1c-1.6,6.8-5,11.8-7.6,11.2c-2.6-0.6-3.4-6.6-1.8-13.4c1.6-6.8,5-11.8,7.6-11.2
		C29.1,223.3,29.9,229.3,28.3,236.1z"/>
	<path class="st0" d="M17.4,197.4c-1.8,5.5-5,9.4-7.2,8.7c-2.1-0.7-2.4-5.8-0.5-11.3c1.8-5.5,5-9.4,7.2-8.7
		C19,186.8,19.2,191.9,17.4,197.4z"/>
	<path class="st0" d="M20.9,153.2c-1.8,5.5-5,9.4-7.2,8.7c-2.1-0.7-2.4-5.8-0.5-11.3c1.8-5.5,5-9.4,7.2-8.7
		C22.5,142.6,22.7,147.7,20.9,153.2z"/>
	<path class="st0" d="M36.5,101.5c-1.8,5.4-4.9,9.2-7,8.5c-2.1-0.7-2.3-5.6-0.5-11c1.8-5.4,4.9-9.2,7-8.5
		C38.1,91.2,38.3,96.2,36.5,101.5z"/>
	<path class="st0" d="M60.6,56.6c-1.9,5.8-5.3,9.9-7.5,9.1c-2.2-0.7-2.5-6-0.6-11.8c1.9-5.8,5.3-9.9,7.5-9.1
		C62.2,45.6,62.5,50.9,60.6,56.6z"/>
	<path class="st0" d="M91.7,28.3c-2.4,6.3-6.3,10.7-8.7,9.8c-2.4-0.9-2.5-6.8-0.1-13.1c2.4-6.3,6.3-10.7,8.7-9.8
		C94.1,16.1,94.1,22,91.7,28.3z"/>
	<path class="st0" d="M125.8,36.2c-1.7,6.5-5.1,11.3-7.7,10.6c-2.5-0.7-3.2-6.5-1.4-13c1.7-6.5,5.1-11.3,7.7-10.6
		C126.8,23.8,127.5,29.7,125.8,36.2z"/>
	<path class="st0" d="M138.6,52.4c0,0,1-74.6-49.5-44.6C38.5,37.7-27.5,205.6,17.9,255.5c0,0,27.5,27.5,74.6-48.5l5.5,23.7l20.6-1.4
		c0,0-19.9,37.1-59.5,46.1l-39.6-14.1c0,0-28.5-14.8-16.9-91.1c0,0,15.8-92.5,69.8-151c0,0,22.7-23.4,46.8-18.6l35.1,13.4
		c0,0,14.8,8.3,14.4,50.9c0,0-8.9,10.7-15.5,13.1L138.6,52.4z"/>
	<g>
		<path class="st0" d="M143.7,135.7H123v22.8h-13.1v-56.6h37.9v10.1H123v13.6h20.7V135.7z"/>
		<path class="st0" d="M191.6,134.2h-20v14.1h23.9v10.1h-37.1v-56.6h37.1v10.1h-24v12.2h20V134.2z"/>
		<path class="st0" d="M207.2,158.5v-56.6h20.7c6.7,0,12.2,2.2,16.7,6.5c4.5,4.3,6.7,9.9,6.7,16.7v10.2c0,6.8-2.2,12.4-6.7,16.7
			c-4.5,4.3-10.1,6.5-16.7,6.5H207.2z M220.3,111.9v36.4h7.6c3,0,5.4-1.2,7.4-3.7c1.9-2.4,2.9-5.6,2.9-9.5V125c0-3.8-1-6.9-2.9-9.4
			c-1.9-2.4-4.4-3.7-7.4-3.7H220.3z"/>
		<path class="st0" d="M296.6,134.2h-20v14.1h23.9v10.1h-37.1v-56.6h37.1v10.1h-24v12.2h20V134.2z"/>
		<path class="st0" d="M325.3,136.8v21.7h-13.1v-56.6h19.7c6.6,0,11.8,1.5,15.6,4.6c3.8,3,5.8,7.2,5.8,12.4c0,2.9-0.8,5.4-2.3,7.5
			c-1.5,2.1-3.8,3.8-6.8,5.1c3.5,1,6,2.6,7.5,4.9c1.5,2.3,2.3,5.2,2.3,8.6v3.6c0,1.5,0.2,3.2,0.7,5.1c0.4,1.9,1.2,3.2,2.3,4v0.8
			h-13.6c-1-0.8-1.7-2.2-2-4.2c-0.3-2-0.5-3.9-0.5-5.7v-3.4c0-2.7-0.7-4.8-2.1-6.2c-1.4-1.4-3.5-2.1-6.3-2.1H325.3z M325.3,126.7
			h6.7c2.6,0,4.7-0.6,6.1-1.8c1.4-1.2,2.1-2.9,2.1-5.2c0-2.3-0.7-4.2-2.2-5.6c-1.4-1.4-3.5-2.1-6.1-2.1h-6.6V126.7z"/>
		<path class="st0" d="M396.8,147.5H380l-3.3,11h-13.8l18.5-56.6h7v0l0,0h7l18.5,56.6h-13.8L396.8,147.5z M383,137.4h10.8l-5.3-17.6
			h-0.2L383,137.4z"/>
		<path class="st0" d="M435.4,148.4h24.3v10.1h-37.5v-56.6h13.1V148.4z"/>
	</g>
	<g>
		<path class="st0" d="M127.3,189.4h-17.9l-2.7,18.2h-3.2l5.8-39h23.8l-0.4,2.7h-20.7l-2.3,15.2h17.9L127.3,189.4z"/>
		<path class="st0" d="M143.2,205h20.1l-0.4,2.7h-23.3l5.8-39h3.2L143.2,205z"/>
		<path class="st0" d="M198.1,196.8H181l-5.6,10.9h-3.3l20.1-39h3l8.4,39h-3.3L198.1,196.8z M182.5,194h15l-4.3-20.6l-0.2,0
			L182.5,194z"/>
		<path class="st0" d="M244.3,207.7h-3.2l-17.2-33.3l-0.1,0l-5,33.3h-3.2l5.8-39h3.2l17.2,33.3l0.1,0l5-33.2h3.2L244.3,207.7z"/>
		<path class="st0" d="M288.6,202.4c-1.1,1.4-2.8,2.7-5.3,4c-2.5,1.2-5.5,1.8-9,1.8c-4.3,0-7.7-1.6-10.2-4.7
			c-2.5-3.1-3.4-7.1-2.6-11.9l1.1-7.1c0.8-5,2.7-9,5.9-11.9c3.2-2.9,7-4.4,11.4-4.4c4.1,0,7.2,1.1,9.4,3.4c2.2,2.2,3,5.1,2.4,8.5
			l-0.1,0.2h-3c0.4-2.8-0.2-5-1.7-6.7c-1.6-1.7-4.1-2.6-7.5-2.6c-3.4,0-6.4,1.3-9,3.8c-2.6,2.6-4.2,5.8-4.7,9.7l-1.1,7.2
			c-0.6,4.2,0,7.6,1.8,10.1c1.8,2.5,4.6,3.8,8.2,3.8c2.6,0,4.9-0.4,6.8-1.3c1.9-0.8,3.3-1.8,4.1-2.8l1.5-10h-10.5l0.4-2.7h13.7
			L288.6,202.4z"/>
		<path class="st0" d="M327.2,188.8h-17.5l-2.4,16.2h20.2l-0.4,2.7h-23.4l5.8-39h23.3l-0.4,2.7h-20.1l-2.2,14.6h17.5L327.2,188.8z"
			/>
	</g>
</g>
<g>
	<path class="st0" d="M272.6,226.2h-5.3l-0.7,4.6h6.2l-0.2,1.4h-7.9l1.9-12.9h7.8l-0.2,1.4h-6.1l-0.6,4.2h5.3L272.6,226.2z"/>
	<path class="st0" d="M280.4,229.5c0.1-0.4,0-0.7-0.3-0.9c-0.3-0.2-0.8-0.4-1.6-0.6c-1.1-0.2-1.9-0.6-2.5-1c-0.5-0.4-0.8-1-0.7-1.8
		c0.1-0.8,0.5-1.5,1.3-2c0.7-0.5,1.6-0.8,2.7-0.8c1,0,1.9,0.3,2.5,0.9c0.6,0.6,0.9,1.3,0.7,2.1l0,0.1h-1.7c0.1-0.4-0.1-0.8-0.4-1.1
		c-0.3-0.3-0.7-0.5-1.3-0.5c-0.6,0-1.1,0.1-1.4,0.4c-0.4,0.3-0.6,0.6-0.6,1c-0.1,0.4,0,0.7,0.3,0.9c0.2,0.2,0.7,0.4,1.6,0.6
		c1.1,0.2,2,0.6,2.5,1.1c0.5,0.5,0.8,1,0.7,1.8c-0.1,0.9-0.6,1.6-1.3,2.1c-0.8,0.5-1.7,0.8-2.8,0.8c-1.2,0-2.1-0.3-2.7-0.9
		c-0.6-0.6-0.9-1.3-0.7-2.2l0-0.1h1.7c-0.1,0.6,0.1,1.1,0.5,1.4c0.4,0.3,0.9,0.4,1.4,0.4c0.6,0,1.1-0.1,1.5-0.4
		C280.1,230.3,280.3,229.9,280.4,229.5z"/>
	<path class="st0" d="M288.1,220.2l-0.3,2.3h1.8l-0.2,1.3h-1.8l-0.9,5.8c-0.1,0.5,0,0.8,0.1,1c0.2,0.2,0.4,0.3,0.7,0.3
		c0.1,0,0.2,0,0.3,0c0.1,0,0.2-0.1,0.3-0.1l0.1,1.2c-0.1,0.1-0.4,0.2-0.6,0.3c-0.3,0.1-0.5,0.1-0.8,0.1c-0.7,0-1.2-0.2-1.6-0.6
		c-0.4-0.4-0.5-1.1-0.3-2l0.9-5.8h-1.5l0.2-1.3h1.5l0.3-2.3H288.1z"/>
	<path class="st0" d="M291.9,232.1h-1.7l0.3-1.8h1.7L291.9,232.1z"/>
	<path class="st0" d="M304.3,232.1h-1.8l1.7-11.3l-2.8,0l0.2-1.3l4.6-0.5L304.3,232.1z"/>
	<path class="st0" d="M312.9,230.9c0.8,0,1.5-0.3,2.1-0.9c0.6-0.6,1-1.4,1.2-2.4l0.2-1c-0.3,0.4-0.7,0.7-1.2,0.9
		c-0.4,0.2-0.9,0.3-1.4,0.3c-1.2,0-2.1-0.4-2.7-1.2c-0.6-0.8-0.8-1.8-0.6-3.2c0.2-1.3,0.7-2.4,1.6-3.2c0.9-0.8,1.9-1.2,3-1.2
		c1.2,0,2.2,0.4,2.9,1.2c0.7,0.8,0.9,2,0.7,3.4l-0.6,3.9c-0.2,1.5-0.8,2.7-1.8,3.5c-1,0.8-2.1,1.2-3.5,1.2c-0.4,0-0.9,0-1.4-0.1
		c-0.5-0.1-0.9-0.2-1.3-0.4l0.5-1.3c0.4,0.2,0.7,0.3,1.1,0.4C311.9,230.9,312.4,230.9,312.9,230.9z M313.9,226.4
		c0.6,0,1.1-0.1,1.6-0.4c0.5-0.3,0.8-0.6,1.1-1.1l0.2-1.5c0.1-1,0-1.8-0.3-2.3c-0.4-0.5-0.9-0.8-1.7-0.8c-0.6,0-1.2,0.3-1.7,0.8
		c-0.5,0.6-0.8,1.3-1,2.2c-0.1,0.9-0.1,1.6,0.2,2.2C312.7,226.2,313.2,226.4,313.9,226.4z"/>
	<path class="st0" d="M329.6,220.6c-1.9,1.9-3.3,3.6-4.1,5.1c-0.8,1.5-1.3,3.1-1.6,5l-0.2,1.4h-1.7l0.2-1.4c0.3-2,0.9-3.8,1.8-5.3
		c0.9-1.5,2.2-3.1,3.9-4.8H321l0.2-1.4h8.5L329.6,220.6z"/>
	<path class="st0" d="M331,226.4l1.8-7.1h6.4l-0.2,1.5h-5l-1,3.7c0.3-0.2,0.6-0.4,1-0.5c0.4-0.1,0.7-0.2,1.2-0.2
		c1.2,0,2.1,0.4,2.6,1.1c0.6,0.8,0.7,1.8,0.6,3.1c-0.2,1.3-0.7,2.4-1.5,3.1c-0.8,0.8-1.9,1.1-3.2,1.1c-1.1,0-1.9-0.3-2.6-0.9
		c-0.7-0.6-0.9-1.5-0.7-2.6l0,0h1.6c-0.1,0.7,0,1.3,0.3,1.6c0.3,0.4,0.8,0.6,1.5,0.6c0.7,0,1.3-0.3,1.8-0.8c0.5-0.5,0.8-1.2,1-2.1
		c0.1-0.8,0-1.5-0.3-2c-0.3-0.5-0.9-0.7-1.6-0.7c-0.7,0-1.2,0.1-1.5,0.3c-0.4,0.2-0.6,0.5-0.8,0.9L331,226.4z"/>
</g>
</svg>
