<?xml version="1.0" encoding="UTF-8"?>
<svg id="Layer_1" xmlns="http://www.w3.org/2000/svg" version="1.1" viewBox="0 0 352.7 160.33">
  <!-- Generator: Adobe Illustrator 29.0.1, SVG Export Plug-In . SVG Version: 2.1.0 Build 192)  -->
  <defs>
    <style>
      .st0 {
        fill: #ed1c24;
      }

      .st1 {
        fill: #003750;
      }
    </style>
  </defs>
  <polygon class="st1" points="30.66 90.3 30.66 14.06 8.64 52.18 30.66 90.3"/>
  <polygon class="st1" points="35.29 11.57 101.33 49.69 79.32 11.57 35.29 11.57"/>
  <polygon class="st1" points="57.31 54.83 35.29 92.96 79.31 92.96 101.33 54.83 57.31 54.83"/>
  <polygon class="st0" points="36.46 19.21 36.46 78.87 53.68 49.04 88.13 49.04 36.46 19.21"/>
  <g>
    <path class="st1" d="M116.6,12.22h31.48v7.79h-22.39v8.57h19.08v7.72h-19.08v17.98h-9.09s0-42.06,0-42.06Z"/>
    <path class="st1" d="M149.18,38.05c0-9.35,7.27-16.87,16.81-16.87,8.83,0,15.77,7.53,15.77,16.74,0,1.56-.19,3.12-.19,3.12h-23.56c1.04,4.48,4.74,6.62,9.02,6.62,3.12,0,6.36-.91,8.76-2.53l3.25,6.23c-3.63,2.4-7.85,3.57-12.07,3.57-9.48,0-17.78-6.17-17.78-16.87h-.01ZM173.58,35.26c-.65-4.09-3.89-6.81-7.85-6.81s-7.01,2.73-7.85,6.81h15.71,0Z"/>
    <path class="st1" d="M185.33,38.05c0-9.35,5.84-16.87,14.8-16.87,3.76,0,7.46,1.49,9.8,4.28v-13.89h8.7v42.71h-8.24v-3.89c-2.34,3.12-6.49,4.54-10.38,4.54-8.96,0-14.67-7.53-14.67-16.87h0ZM209.93,38.05c0-5.06-3.25-8.83-7.72-8.83s-8.05,3.76-8.05,8.83,3.37,8.83,8.05,8.83,7.72-3.63,7.72-8.83Z"/>
    <path class="st1" d="M223.23,38.05c0-9.35,7.27-16.87,16.81-16.87,8.83,0,15.77,7.53,15.77,16.74,0,1.56-.19,3.12-.19,3.12h-23.56c1.04,4.48,4.74,6.62,9.02,6.62,3.12,0,6.36-.91,8.76-2.53l3.25,6.23c-3.63,2.4-7.85,3.57-12.07,3.57-9.48,0-17.78-6.17-17.78-16.87h0ZM247.64,35.26c-.65-4.09-3.89-6.81-7.85-6.81s-7.01,2.73-7.85,6.81h15.71,0Z"/>
    <path class="st1" d="M260.88,21.83h8.57v6.23c.91-2.66,4.22-6.88,11.36-6.88v9.48c-7.53,0-11.23,3.44-11.23,11.16v12.46h-8.7V21.83h0Z"/>
    <path class="st1" d="M283.2,38.05c0-9.35,5.71-16.87,14.67-16.87,3.76,0,7.79,1.49,10.12,4.61v-3.96h8.5v32.45h-8.5v-3.89c-2.27,3.12-6.36,4.54-10.12,4.54-8.96,0-14.67-7.53-14.67-16.87h0ZM307.8,38.05c0-5.06-3.25-8.83-7.72-8.83s-8.05,3.76-8.05,8.83,3.37,8.83,8.05,8.83,7.72-3.63,7.72-8.83Z"/>
    <path class="st1" d="M322.73,11.57h8.7v42.71h-8.7V11.57Z"/>
    <path class="st1" d="M116.6,65.42h31.48v7.79h-22.39v8.57h19.08v7.72h-19.08v17.98h-9.09s0-42.06,0-42.06Z"/>
    <path class="st1" d="M152.49,64.77h8.7v42.71h-8.7v-42.71Z"/>
    <path class="st1" d="M166.51,91.25c0-9.35,5.71-16.87,14.67-16.87,3.76,0,7.79,1.49,10.12,4.61v-3.96h8.5v32.45h-8.5v-3.89c-2.27,3.12-6.36,4.54-10.12,4.54-8.96,0-14.67-7.53-14.67-16.87h0ZM191.1,91.25c0-5.06-3.25-8.83-7.72-8.83s-8.05,3.76-8.05,8.83,3.37,8.83,8.05,8.83,7.72-3.63,7.72-8.83Z"/>
    <path class="st1" d="M206.51,75.03h8.5v4.35c2.6-3.57,6.3-5,10.25-5,8.57,0,11.55,5.52,11.55,14.41v18.69h-8.7v-17.59c0-4.74-1.23-7.27-5.65-7.27s-7.27,3.5-7.27,8.44v16.42h-8.7v-32.45h.02Z"/>
    <path class="st1" d="M243.57,112.99l3.25-5.45c2.6,2.01,6.36,2.92,9.41,2.92,6.04,0,9.09-3.63,9.35-8.83.06-.19.06-.45.06-.71-1.43,2.53-4.93,4.8-9.74,4.8-9.02,0-14.67-7.01-14.67-15.64s5.65-15.71,14.67-15.71c4.15,0,8.44,1.82,10.19,5.06v-4.41h8.24v24.6c0,10.64-6.43,17.39-17.2,17.39-5.84,0-10.58-1.56-13.56-4.02h0ZM265.7,89.89c0-4.54-3.37-7.98-7.85-7.98s-7.79,3.44-7.79,8.18,3.37,8.05,7.79,8.05,7.85-3.37,7.85-8.24h0Z"/>
    <path class="st1" d="M278.03,91.25c0-9.35,7.27-16.87,16.81-16.87,8.83,0,15.77,7.53,15.77,16.74,0,1.56-.19,3.12-.19,3.12h-23.56c1.04,4.48,4.74,6.62,9.02,6.62,3.12,0,6.36-.91,8.76-2.53l3.25,6.23c-3.63,2.4-7.85,3.57-12.07,3.57-9.48,0-17.78-6.17-17.78-16.87h0ZM302.43,88.46c-.65-4.09-3.89-6.81-7.85-6.81s-7.01,2.73-7.85,6.81h15.71,0Z"/>
  </g>
  <g>
    <path class="st1" d="M122.16,129.36h1.75l7.4,15.82h-1.97l-1.46-3.07h-9.66l-1.46,3.07h-2l7.4-15.82h0ZM127.18,140.53l-2.9-6.13c-.54-1.14-1.14-2.65-1.24-2.85-.1.19-.68,1.68-1.24,2.85l-2.9,6.13h8.28Z"/>
    <path class="st1" d="M138.13,137.29c0-4.53,3.53-8.13,8.23-8.13s8.2,3.6,8.2,8.13-3.53,8.13-8.2,8.13-8.23-3.6-8.23-8.13ZM152.54,137.29c0-3.5-2.68-6.35-6.18-6.35s-6.21,2.85-6.21,6.35,2.68,6.35,6.21,6.35,6.18-2.85,6.18-6.35Z"/>
    <path class="st1" d="M156.58,133.33h1.85v2.02c.83-1.44,2.36-2.26,4.11-2.26,2.97,0,4.28,1.8,4.28,4.92v7.18h-1.85v-6.94c0-2.19-.8-3.36-2.94-3.36s-3.6,1.65-3.6,3.63v6.67h-1.85v-11.85h0Z"/>
    <path class="st1" d="M169.18,139.26c0-3.43,2.58-6.18,5.96-6.18,3.16,0,5.67,2.73,5.67,6.11,0,.34-.05.71-.05.73h-9.66c.29,2.36,2.12,3.85,4.31,3.85,1.34,0,2.68-.46,3.65-1.27l.8,1.36c-1.27,1-2.85,1.56-4.48,1.56-3.36,0-6.21-2.41-6.21-6.16h.01ZM178.99,138.51c-.19-2.19-1.87-3.77-3.94-3.77s-3.67,1.56-3.94,3.77h7.88Z"/>
    <path class="st1" d="M181.11,129.41h1.95l3.68,11.07c.32.95.63,2.12.63,2.12,0,0,.24-1.17.54-2.12l3.33-11.12h1.95l3.33,11.12c.29.97.54,2.12.54,2.12,0,0,.32-1.14.63-2.12l3.67-11.07h1.97l-5.28,15.87h-1.95l-3.33-10.9c-.32-1.02-.56-2.43-.56-2.43,0,0-.22,1.41-.54,2.43l-3.36,10.9h-1.95l-5.26-15.87h0Z"/>
    <path class="st1" d="M203.14,139.26c0-3.43,2.58-6.18,5.96-6.18,3.16,0,5.67,2.73,5.67,6.11,0,.34-.05.71-.05.73h-9.66c.29,2.36,2.12,3.85,4.31,3.85,1.34,0,2.68-.46,3.65-1.27l.8,1.36c-1.27,1-2.85,1.56-4.48,1.56-3.36,0-6.21-2.41-6.21-6.16h.01ZM212.94,138.51c-.19-2.19-1.87-3.77-3.94-3.77s-3.67,1.56-3.94,3.77h7.88Z"/>
    <path class="st1" d="M216.33,143.62l.75-1.51c.88.85,2.14,1.56,3.87,1.56,1.63,0,2.97-.75,2.97-1.83,0-1.24-1.44-1.58-2.87-1.95-2.19-.56-4.19-1.17-4.19-3.43,0-2.14,2.24-3.38,4.23-3.38,1.63,0,2.82.44,4.04,1.27l-.73,1.51c-1-.68-2.04-1.02-3.29-1.02s-2.36.68-2.36,1.61c0,1.17,1.31,1.44,2.7,1.73,2.14.49,4.36,1.29,4.36,3.63,0,2.51-2.56,3.63-4.87,3.63s-3.94-1.1-4.62-1.8v-.02Z"/>
    <path class="st1" d="M228.91,141.62v-6.77h-1.78v-1.53h1.78v-2.56l1.85-.34v2.9h4.04v1.53h-4.04v6.81c0,1.63.71,2.09,1.65,2.09,1.1,0,1.95-.66,1.95-.66l.61,1.44c-.46.32-1.44.88-2.73.88-2.09,0-3.33-1.02-3.33-3.8h0Z"/>
    <path class="st1" d="M242.1,137.27c0-4.5,3.53-8.1,8.23-8.1,2.09,0,4.02.75,5.43,2.02l-1.14,1.31c-1.19-1.02-2.6-1.56-4.16-1.56-3.65,0-6.33,2.85-6.33,6.33s2.68,6.38,6.21,6.38c1.83,0,3.48-.73,4.62-1.95l1.22,1.34c-1.46,1.46-3.5,2.38-5.84,2.38-4.7,0-8.23-3.6-8.23-8.15h0Z"/>
    <path class="st1" d="M257.32,139.26c0-3.46,2.75-6.18,6.23-6.18s6.23,2.73,6.23,6.18-2.75,6.16-6.23,6.16-6.23-2.73-6.23-6.16ZM267.88,139.26c0-2.51-1.87-4.38-4.33-4.38s-4.33,1.87-4.33,4.38,1.87,4.36,4.33,4.36,4.33-1.87,4.33-4.36Z"/>
    <path class="st1" d="M271.97,133.33h1.85v2.04c.66-1.29,2.14-2.29,3.8-2.29,1.9,0,3.24.83,3.8,2.51.85-1.73,2.7-2.51,4.09-2.51,2.85,0,4.36,1.65,4.36,4.92v7.18h-1.87v-6.94c0-2.02-.71-3.36-2.87-3.36-2,0-3.26,1.61-3.26,3.38v6.91h-1.87v-6.94c0-2.02-.71-3.36-2.85-3.36s-3.31,1.75-3.31,3.48v6.81h-1.85v-11.85l-.02.02Z"/>
    <path class="st1" d="M292.86,133.33h1.78v2.04c.88-1.53,2.6-2.29,4.53-2.29,3.29,0,5.6,2.7,5.6,6.16s-2.31,6.18-5.6,6.18c-1.87,0-3.58-.78-4.45-2.31v5.5h-1.85v-15.28h0ZM302.86,139.24c0-2.51-1.75-4.36-4.11-4.36s-4.04,1.87-4.04,4.36,1.78,4.38,4.04,4.38,4.11-1.85,4.11-4.38Z"/>
    <path class="st1" d="M306.41,139.26c0-3.48,2.31-6.18,5.6-6.18,1.9,0,3.58.78,4.45,2.31v-2.07h1.85v11.85h-1.85v-2.07c-.88,1.56-2.56,2.31-4.45,2.31-3.29,0-5.6-2.73-5.6-6.16h0ZM316.47,139.26c0-2.48-1.78-4.38-4.04-4.38s-4.11,1.85-4.11,4.38,1.75,4.36,4.11,4.36,4.04-1.87,4.04-4.36Z"/>
    <path class="st1" d="M321.41,133.33h1.85v2.02c.83-1.44,2.36-2.26,4.11-2.26,2.97,0,4.28,1.8,4.28,4.92v7.18h-1.85v-6.94c0-2.19-.8-3.36-2.94-3.36s-3.6,1.65-3.6,3.63v6.67h-1.85v-11.85h0Z"/>
    <path class="st1" d="M334.82,147c1.29,0,2.09-.36,2.9-2.07l.27-.54-5.33-11.07h1.92l3.72,7.96c.27.56.54,1.34.54,1.34,0,0,.37-.97.56-1.41l3.53-7.88h1.9l-5.65,12.44c-1.29,2.8-2.97,2.99-4.36,2.99v-1.75h0Z"/>
  </g>
</svg>