<?xml version="1.0" encoding="UTF-8"?>
<svg id="Layer_1" xmlns="http://www.w3.org/2000/svg" version="1.1" viewBox="0 0 376.71 104.75">
  <!-- Generator: Adobe Illustrator 29.0.1, SVG Export Plug-In . SVG Version: 2.1.0 Build 192)  -->
  <defs>
    <style>
      .st0 {
        fill: #ed1c24;
      }

      .st1 {
        fill: #003750;
      }
    </style>
  </defs>
  <g id="Family">
    <polygon class="st1" points="30.66 90.3 30.66 14.06 8.64 52.18 30.66 90.3"/>
    <polygon class="st1" points="35.29 11.57 101.33 49.69 79.32 11.57 35.29 11.57"/>
    <polygon class="st1" points="57.31 54.83 35.29 92.96 79.31 92.96 101.33 54.83 57.31 54.83"/>
    <polygon class="st0" points="36.46 19.21 36.46 78.87 53.68 49.04 88.13 49.04 36.46 19.21"/>
  </g>
  <g id="Layer_3">
    <g>
      <path class="st1" d="M121.59,77.4h1.75l7.4,15.82h-1.97l-1.46-3.07h-9.66l-1.46,3.07h-2l7.4-15.82ZM126.6,88.57l-2.9-6.13c-.54-1.14-1.14-2.65-1.24-2.85-.1.19-.68,1.68-1.24,2.85l-2.9,6.13h8.28Z"/>
      <path class="st1" d="M137.56,85.33c0-4.53,3.53-8.13,8.23-8.13s8.2,3.6,8.2,8.13-3.53,8.13-8.2,8.13-8.23-3.6-8.23-8.13ZM151.96,85.33c0-3.5-2.68-6.35-6.18-6.35s-6.21,2.85-6.21,6.35,2.68,6.35,6.21,6.35,6.18-2.85,6.18-6.35Z"/>
      <path class="st1" d="M156.01,81.37h1.85v2.02c.83-1.44,2.36-2.26,4.11-2.26,2.97,0,4.28,1.8,4.28,4.92v7.18h-1.85v-6.94c0-2.19-.8-3.36-2.94-3.36s-3.6,1.65-3.6,3.63v6.67h-1.85v-11.85h0Z"/>
      <path class="st1" d="M168.61,87.3c0-3.43,2.58-6.18,5.96-6.18,3.16,0,5.67,2.73,5.67,6.11,0,.34-.05.71-.05.73h-9.66c.29,2.36,2.12,3.85,4.31,3.85,1.34,0,2.68-.46,3.65-1.27l.8,1.36c-1.27,1-2.85,1.56-4.48,1.56-3.36,0-6.21-2.41-6.21-6.16h.01ZM178.42,86.55c-.2-2.19-1.87-3.77-3.94-3.77s-3.67,1.56-3.94,3.77h7.89,0Z"/>
      <path class="st1" d="M180.54,77.45h1.95l3.68,11.07c.32.95.63,2.12.63,2.12,0,0,.24-1.17.54-2.12l3.33-11.12h1.95l3.33,11.12c.29.97.54,2.12.54,2.12,0,0,.32-1.14.63-2.12l3.68-11.07h1.97l-5.28,15.87h-1.95l-3.33-10.9c-.32-1.02-.56-2.43-.56-2.43,0,0-.22,1.41-.54,2.43l-3.36,10.9h-1.95l-5.26-15.87Z"/>
      <path class="st1" d="M202.56,87.3c0-3.43,2.58-6.18,5.96-6.18,3.16,0,5.67,2.73,5.67,6.11,0,.34-.05.71-.05.73h-9.66c.29,2.36,2.12,3.85,4.31,3.85,1.34,0,2.68-.46,3.65-1.27l.8,1.36c-1.27,1-2.85,1.56-4.48,1.56-3.36,0-6.21-2.41-6.21-6.16h.01ZM212.37,86.55c-.2-2.19-1.87-3.77-3.94-3.77s-3.67,1.56-3.94,3.77h7.89,0Z"/>
      <path class="st1" d="M215.76,91.66l.75-1.51c.88.85,2.14,1.56,3.87,1.56,1.63,0,2.97-.75,2.97-1.83,0-1.24-1.43-1.58-2.87-1.95-2.19-.56-4.19-1.17-4.19-3.43,0-2.14,2.24-3.38,4.23-3.38,1.63,0,2.82.44,4.04,1.27l-.73,1.51c-1-.68-2.04-1.02-3.29-1.02s-2.36.68-2.36,1.61c0,1.17,1.31,1.44,2.7,1.73,2.14.49,4.36,1.29,4.36,3.63,0,2.51-2.56,3.63-4.87,3.63s-3.94-1.1-4.62-1.8v-.02Z"/>
      <path class="st1" d="M228.34,89.67v-6.77h-1.78v-1.53h1.78v-2.56l1.85-.34v2.9h4.04v1.53h-4.04v6.81c0,1.63.71,2.09,1.65,2.09,1.1,0,1.95-.66,1.95-.66l.61,1.44c-.46.32-1.44.88-2.73.88-2.09,0-3.33-1.02-3.33-3.8h0Z"/>
      <path class="st1" d="M241.53,85.31c0-4.5,3.53-8.1,8.23-8.1,2.09,0,4.01.75,5.43,2.02l-1.14,1.31c-1.19-1.02-2.6-1.56-4.16-1.56-3.65,0-6.33,2.85-6.33,6.33s2.68,6.38,6.21,6.38c1.82,0,3.48-.73,4.62-1.95l1.22,1.34c-1.46,1.46-3.5,2.38-5.84,2.38-4.7,0-8.23-3.6-8.23-8.15h0Z"/>
      <path class="st1" d="M256.75,87.3c0-3.46,2.75-6.18,6.23-6.18s6.23,2.73,6.23,6.18-2.75,6.16-6.23,6.16-6.23-2.73-6.23-6.16ZM267.31,87.3c0-2.51-1.87-4.38-4.33-4.38s-4.33,1.87-4.33,4.38,1.87,4.36,4.33,4.36,4.33-1.87,4.33-4.36Z"/>
      <path class="st1" d="M271.4,81.37h1.85v2.04c.66-1.29,2.14-2.29,3.8-2.29,1.9,0,3.24.83,3.8,2.51.85-1.73,2.7-2.51,4.09-2.51,2.85,0,4.36,1.65,4.36,4.92v7.18h-1.87v-6.94c0-2.02-.71-3.36-2.87-3.36-2,0-3.26,1.61-3.26,3.38v6.91h-1.87v-6.94c0-2.02-.71-3.36-2.85-3.36s-3.31,1.75-3.31,3.48v6.81h-1.85v-11.85l-.02.02Z"/>
      <path class="st1" d="M292.29,81.37h1.78v2.04c.88-1.53,2.6-2.29,4.53-2.29,3.29,0,5.6,2.7,5.6,6.16s-2.31,6.18-5.6,6.18c-1.87,0-3.58-.78-4.45-2.31v5.5h-1.85v-15.28h0ZM302.29,87.28c0-2.51-1.75-4.36-4.11-4.36s-4.04,1.87-4.04,4.36,1.78,4.38,4.04,4.38,4.11-1.85,4.11-4.38Z"/>
      <path class="st1" d="M305.84,87.3c0-3.48,2.31-6.18,5.6-6.18,1.9,0,3.58.78,4.45,2.31v-2.07h1.85v11.85h-1.85v-2.07c-.88,1.56-2.56,2.31-4.45,2.31-3.29,0-5.6-2.73-5.6-6.16h0ZM315.89,87.3c0-2.48-1.78-4.38-4.04-4.38s-4.11,1.85-4.11,4.38,1.75,4.36,4.11,4.36,4.04-1.87,4.04-4.36Z"/>
      <path class="st1" d="M320.84,81.37h1.85v2.02c.83-1.44,2.36-2.26,4.11-2.26,2.97,0,4.28,1.8,4.28,4.92v7.18h-1.85v-6.94c0-2.19-.8-3.36-2.94-3.36s-3.6,1.65-3.6,3.63v6.67h-1.85v-11.85h0Z"/>
      <path class="st1" d="M334.25,95.04c1.29,0,2.09-.36,2.9-2.07l.27-.54-5.33-11.07h1.92l3.72,7.96c.27.56.54,1.34.54,1.34,0,0,.36-.97.56-1.41l3.53-7.88h1.9l-5.65,12.44c-1.29,2.8-2.97,2.99-4.36,2.99v-1.75h0Z"/>
    </g>
    <g>
      <path class="st1" d="M116.24,12.22h31.48v7.79h-22.39v8.57h19.08v7.72h-19.08v17.98h-9.09s0-42.06,0-42.06Z"/>
      <path class="st1" d="M149.17,33.18c0-11.94,9.22-21.61,22.2-21.61,5.78,0,10.97,1.95,14.73,5.32l-5.58,6.1c-2.86-2.47-5.78-3.18-8.63-3.18-7.66,0-13.24,5.97-13.24,13.37s5.45,13.56,12.92,13.56c3.89,0,7.46-1.49,10.06-4.35l5.65,6.36c-4.02,3.89-9.48,6.23-15.9,6.23-12.98,0-22.2-9.67-22.2-21.81h0Z"/>
      <path class="st1" d="M191.33,12.22h9.09v42.06h-9.09V12.22Z"/>
    </g>
    <g>
      <path class="st1" d="M116.24,12.22h31.48v7.79h-22.39v8.57h19.08v7.72h-19.08v17.98h-9.09s0-42.06,0-42.06Z"/>
      <path class="st1" d="M149.17,33.18c0-11.94,9.22-21.61,22.2-21.61,5.78,0,10.97,1.95,14.73,5.32l-5.58,6.1c-2.86-2.47-5.78-3.18-8.63-3.18-7.66,0-13.24,5.97-13.24,13.37s5.45,13.56,12.92,13.56c3.89,0,7.46-1.49,10.06-4.35l5.65,6.36c-4.02,3.89-9.48,6.23-15.9,6.23-12.98,0-22.2-9.67-22.2-21.81h0Z"/>
      <path class="st1" d="M191.33,12.22h9.09v42.06h-9.09V12.22Z"/>
    </g>
    <g>
      <path class="st1" d="M220.41,12.12h12.76v3.18h-9.08v3.5h7.73v3.16h-7.73v7.35h-3.68V12.12Z"/>
      <path class="st1" d="M233.82,22.68c0-3.85,3.1-6.9,7.02-6.9s7.05,3.05,7.05,6.9-3.1,6.9-7.05,6.9-7.02-3.05-7.02-6.9ZM244.29,22.68c0-2.07-1.47-3.61-3.45-3.61s-3.45,1.54-3.45,3.61,1.47,3.61,3.45,3.61,3.45-1.51,3.45-3.61Z"/>
      <path class="st1" d="M250.12,16.05h3.47v2.55c.37-1.09,1.71-2.81,4.6-2.81v3.87c-3.05,0-4.55,1.41-4.55,4.56v5.09h-3.53v-13.26h0Z"/>
      <path class="st1" d="M260.42,31.57l1.32-2.23c1.05.82,2.58,1.19,3.81,1.19,2.45,0,3.68-1.49,3.79-3.61.03-.08.03-.19.03-.29-.58,1.03-2,1.96-3.95,1.96-3.66,0-5.95-2.86-5.95-6.39s2.29-6.42,5.95-6.42c1.68,0,3.42.74,4.13,2.07v-1.8h3.34v10.05c0,4.35-2.6,7.11-6.97,7.11-2.37,0-4.29-.64-5.5-1.64ZM269.39,22.12c0-1.86-1.37-3.26-3.18-3.26s-3.16,1.41-3.16,3.34,1.37,3.29,3.16,3.29,3.18-1.38,3.18-3.37Z"/>
      <path class="st1" d="M275.14,22.68c0-3.82,2.95-6.9,6.81-6.9,3.58,0,6.39,3.08,6.39,6.84,0,.64-.08,1.27-.08,1.27h-9.55c.42,1.83,1.92,2.71,3.66,2.71,1.26,0,2.58-.37,3.55-1.03l1.32,2.55c-1.47.98-3.18,1.46-4.89,1.46-3.84,0-7.21-2.52-7.21-6.9h0ZM285.03,21.54c-.26-1.67-1.58-2.79-3.18-2.79s-2.84,1.11-3.18,2.79h6.37-.01Z"/>
      <path class="st1" d="M290.04,22.68c0-3.82,2.37-6.9,6-6.9,1.53,0,3.03.61,3.97,1.75v-5.68h3.53v17.46h-3.34v-1.59c-.95,1.27-2.63,1.86-4.21,1.86-3.63,0-5.95-3.08-5.95-6.9ZM300.01,22.68c0-2.07-1.32-3.61-3.13-3.61s-3.26,1.54-3.26,3.61,1.37,3.61,3.26,3.61,3.13-1.49,3.13-3.61Z"/>
      <path class="st1" d="M218.39,45.93c0-4.88,3.74-8.83,9-8.83,2.34,0,4.45.8,5.97,2.18l-2.26,2.49c-1.16-1.01-2.34-1.3-3.5-1.3-3.1,0-5.37,2.44-5.37,5.46s2.21,5.54,5.24,5.54c1.58,0,3.03-.61,4.08-1.78l2.29,2.6c-1.63,1.59-3.84,2.55-6.45,2.55-5.26,0-9-3.95-9-8.91h0Z"/>
      <path class="st1" d="M234.6,47.92c0-3.85,3.1-6.9,7.02-6.9s7.05,3.05,7.05,6.9-3.1,6.9-7.05,6.9-7.02-3.05-7.02-6.9ZM245.07,47.92c0-2.07-1.47-3.61-3.45-3.61s-3.45,1.54-3.45,3.61,1.47,3.61,3.45,3.61,3.45-1.51,3.45-3.61Z"/>
      <path class="st1" d="M250.59,41.29h3.45v1.78c.76-1.19,2.32-2.04,3.89-2.04,2.08,0,3.37.88,4.05,2.36.95-1.59,2.76-2.36,4.26-2.36,3.71,0,4.87,2.57,4.87,5.97v7.56h-3.53v-7.11c0-1.75-.42-3.05-2.29-3.05-1.74,0-2.68,1.41-2.68,3.16v7h-3.53v-7.11c0-1.75-.39-3.05-2.29-3.05-1.79,0-2.68,1.54-2.68,3.29v6.87h-3.53v-13.26h.01Z"/>
      <path class="st1" d="M273.56,41.29h3.34v1.59c1.08-1.3,2.63-1.86,4.21-1.86,3.63,0,5.95,3.08,5.95,6.87s-2.37,6.92-6,6.92c-1.53,0-3.03-.61-3.97-1.78v5.33h-3.53v-17.08h0ZM283.45,47.92c0-2.1-1.34-3.61-3.26-3.61-1.79,0-3.13,1.49-3.13,3.61s1.32,3.61,3.13,3.61c1.92,0,3.26-1.51,3.26-3.61Z"/>
      <path class="st1" d="M288.42,47.92c0-3.85,3.1-6.9,7.02-6.9s7.05,3.05,7.05,6.9-3.1,6.9-7.05,6.9-7.02-3.05-7.02-6.9ZM298.89,47.92c0-2.07-1.47-3.61-3.45-3.61s-3.45,1.54-3.45,3.61,1.47,3.61,3.45,3.61,3.45-1.51,3.45-3.61Z"/>
      <path class="st1" d="M304.41,41.29h3.45v1.78c1.05-1.46,2.55-2.04,4.16-2.04,3.47,0,4.68,2.25,4.68,5.89v7.64h-3.53v-7.19c0-1.94-.5-2.97-2.29-2.97s-2.95,1.43-2.95,3.45v6.71h-3.53v-13.26h.01Z"/>
      <path class="st1" d="M318.46,47.92c0-3.82,2.95-6.9,6.81-6.9,3.58,0,6.39,3.08,6.39,6.84,0,.64-.08,1.27-.08,1.27h-9.55c.42,1.83,1.92,2.71,3.66,2.71,1.26,0,2.58-.37,3.55-1.03l1.32,2.55c-1.47.98-3.18,1.46-4.89,1.46-3.84,0-7.21-2.52-7.21-6.9h0ZM328.35,46.78c-.26-1.67-1.58-2.79-3.18-2.79s-2.84,1.11-3.18,2.79h6.37-.01Z"/>
      <path class="st1" d="M333.63,41.29h3.45v1.78c1.05-1.46,2.55-2.04,4.16-2.04,3.47,0,4.68,2.25,4.68,5.89v7.64h-3.53v-7.19c0-1.94-.5-2.97-2.29-2.97s-2.95,1.43-2.95,3.45v6.71h-3.53v-13.26h.01Z"/>
      <path class="st1" d="M348.93,50.28v-6.13h-1.92v-2.86h1.92v-2.55l3.53-.8v3.34h3.63v2.86h-3.63v6.08c0,1.14.55,1.51,1.18,1.51.84,0,1.58-.48,1.68-.56l1,2.63c-.79.53-1.95,1.01-3.34,1.01-2.63,0-4.05-1.54-4.05-4.54h0Z"/>
      <path class="st1" d="M357.16,53.02l1.26-2.73c.89.69,2.13,1.41,4.1,1.41.82,0,2.16-.32,2.16-1.11s-1.13-.98-2.26-1.3c-2.6-.69-4.74-1.57-4.74-4.11,0-2.71,2.63-4.14,5.1-4.14,2.16,0,3.53.53,4.89,1.33l-1.18,2.65c-1.29-.64-2.5-.93-3.66-.93-.82,0-1.58.37-1.58.93,0,.74,1.11.98,2.32,1.25,2.24.53,4.68,1.51,4.68,4.22,0,3.26-3.29,4.35-5.74,4.35-2.81,0-4.63-1.11-5.37-1.8l.02-.02Z"/>
    </g>
  </g>
</svg>