<?xml version="1.0" encoding="UTF-8"?>
<svg id="Layer_1" xmlns="http://www.w3.org/2000/svg" version="1.1" viewBox="0 0 415.57 108.36">
  <!-- Generator: Adobe Illustrator 29.0.1, SVG Export Plug-In . SVG Version: 2.1.0 Build 192)  -->
  <defs>
    <style>
      .st0 {
        fill: #ed1c24;
      }

      .st1 {
        fill: #003750;
      }
    </style>
  </defs>
  <g id="Layer_11" data-name="Layer_1">
    <polygon class="st1" points="30.66 90.3 30.66 14.06 8.64 52.18 30.66 90.3"/>
    <polygon class="st1" points="35.29 11.57 101.33 49.69 79.32 11.57 35.29 11.57"/>
    <polygon class="st1" points="57.31 54.83 35.29 92.96 79.31 92.96 101.33 54.83 57.31 54.83"/>
    <polygon class="st0" points="36.46 19.21 36.46 78.87 53.68 49.04 88.13 49.04 36.46 19.21"/>
  </g>
  <g id="Family">
    <g>
      <path class="st1" d="M116.49,12.22h31.48v7.79h-22.39v8.57h19.08v7.72h-19.08v17.98h-9.09s0-42.06,0-42.06Z"/>
      <path class="st1" d="M147.71,38.05c0-9.41,7.66-16.87,17.33-16.87s17.39,7.46,17.39,16.87-7.66,16.87-17.39,16.87-17.33-7.46-17.33-16.87ZM173.54,38.05c0-5.06-3.63-8.83-8.5-8.83s-8.5,3.76-8.5,8.83,3.63,8.83,8.5,8.83,8.5-3.7,8.5-8.83Z"/>
      <path class="st1" d="M186.78,21.83h8.57v6.23c.91-2.66,4.22-6.88,11.36-6.88v9.48c-7.53,0-11.23,3.44-11.23,11.16v12.46h-8.7V21.83h0Z"/>
      <path class="st1" d="M211.81,59.79l3.25-5.45c2.6,2.01,6.36,2.92,9.41,2.92,6.04,0,9.09-3.63,9.35-8.83.06-.19.06-.45.06-.71-1.43,2.53-4.93,4.8-9.74,4.8-9.02,0-14.67-7.01-14.67-15.64s5.65-15.71,14.67-15.71c4.15,0,8.44,1.82,10.19,5.06v-4.41h8.24v24.6c0,10.64-6.43,17.39-17.2,17.39-5.84,0-10.58-1.56-13.56-4.02h0ZM233.94,36.69c0-4.54-3.37-7.98-7.85-7.98s-7.79,3.44-7.79,8.18,3.37,8.05,7.79,8.05,7.85-3.37,7.85-8.24h0Z"/>
      <path class="st1" d="M247.78,38.05c0-9.35,7.27-16.87,16.81-16.87,8.83,0,15.77,7.53,15.77,16.74,0,1.56-.19,3.12-.19,3.12h-23.56c1.04,4.48,4.74,6.62,9.02,6.62,3.12,0,6.36-.91,8.76-2.53l3.25,6.23c-3.63,2.4-7.85,3.57-12.07,3.57-9.48,0-17.78-6.17-17.78-16.87h0ZM272.18,35.26c-.65-4.09-3.89-6.81-7.85-6.81s-7.01,2.73-7.85,6.81h15.71,0Z"/>
      <path class="st1" d="M285.73,37.53V12.22h9.09v24.86c0,6.3,3.57,9.61,9.09,9.61s9.09-3.31,9.09-9.61V12.22h9.09v25.31c0,11.1-7.4,17.46-18.17,17.46s-18.17-6.36-18.17-17.46h-.02Z"/>
      <path class="st1" d="M326.49,49.28l3.31-7.01c3.37,2.47,7.4,4.61,13.82,4.61,3.5,0,7.79-1.62,7.79-4.93s-3.76-4.09-7.46-5c-7.85-1.82-15.97-4.48-15.97-13.24,0-8.11,7.59-12.14,15.64-12.14,6.36,0,11.16,1.69,15.38,4.48l-3.31,7.01c-3.37-2.21-7.79-3.37-12.07-3.37-2.21,0-6.36.84-6.36,4.02,0,2.73,3.05,3.7,7.2,4.67,7.46,1.75,16.42,4.54,16.42,13.56s-8.83,13.05-17.26,13.05c-10.06,0-14.8-3.83-17.13-5.71h0Z"/>
      <path class="st1" d="M379.84,12.22h8.96l18.3,42.06h-9.22l-2.86-6.68h-21.35l-2.86,6.68h-9.28l18.3-42.06h.01ZM392.17,40.52l-4.87-12.01c-1.3-3.18-2.92-7.4-2.99-7.53-.06.13-1.69,4.35-2.99,7.53l-4.87,12.01h15.72Z"/>
    </g>
    <g>
      <path class="st1" d="M122.59,77.42h1.75l7.4,15.82h-1.97l-1.46-3.07h-9.66l-1.46,3.07h-2l7.4-15.82h0ZM127.6,88.59l-2.9-6.13c-.54-1.14-1.14-2.65-1.24-2.85-.1.19-.68,1.68-1.24,2.85l-2.9,6.13h8.28Z"/>
      <path class="st1" d="M138.56,85.36c0-4.53,3.53-8.13,8.23-8.13s8.2,3.6,8.2,8.13-3.53,8.13-8.2,8.13-8.23-3.6-8.23-8.13ZM152.97,85.36c0-3.5-2.68-6.35-6.18-6.35s-6.21,2.85-6.21,6.35,2.68,6.35,6.21,6.35,6.18-2.85,6.18-6.35Z"/>
      <path class="st1" d="M157.01,81.39h1.85v2.02c.83-1.44,2.36-2.26,4.11-2.26,2.97,0,4.28,1.8,4.28,4.92v7.18h-1.85v-6.94c0-2.19-.8-3.36-2.94-3.36s-3.6,1.65-3.6,3.63v6.67h-1.85v-11.85h0Z"/>
      <path class="st1" d="M169.61,87.33c0-3.43,2.58-6.18,5.96-6.18,3.16,0,5.67,2.73,5.67,6.11,0,.34-.05.71-.05.73h-9.66c.29,2.36,2.12,3.85,4.31,3.85,1.34,0,2.68-.46,3.65-1.27l.8,1.36c-1.27,1-2.85,1.56-4.48,1.56-3.36,0-6.21-2.41-6.21-6.16h.01ZM179.42,86.57c-.19-2.19-1.87-3.77-3.94-3.77s-3.67,1.56-3.94,3.77h7.88Z"/>
      <path class="st1" d="M181.54,77.47h1.95l3.68,11.07c.32.95.63,2.12.63,2.12,0,0,.24-1.17.54-2.12l3.33-11.12h1.95l3.33,11.12c.29.97.54,2.12.54,2.12,0,0,.32-1.14.63-2.12l3.67-11.07h1.97l-5.28,15.87h-1.95l-3.33-10.9c-.32-1.02-.56-2.43-.56-2.43,0,0-.22,1.41-.54,2.43l-3.36,10.9h-1.95l-5.26-15.87h0Z"/>
      <path class="st1" d="M203.56,87.33c0-3.43,2.58-6.18,5.96-6.18,3.16,0,5.67,2.73,5.67,6.11,0,.34-.05.71-.05.73h-9.66c.29,2.36,2.12,3.85,4.31,3.85,1.34,0,2.68-.46,3.65-1.27l.8,1.36c-1.27,1-2.85,1.56-4.48,1.56-3.36,0-6.21-2.41-6.21-6.16h.01ZM213.37,86.57c-.19-2.19-1.87-3.77-3.94-3.77s-3.67,1.56-3.94,3.77h7.88Z"/>
      <path class="st1" d="M216.76,91.68l.75-1.51c.88.85,2.14,1.56,3.87,1.56,1.63,0,2.97-.75,2.97-1.83,0-1.24-1.44-1.58-2.87-1.95-2.19-.56-4.19-1.17-4.19-3.43,0-2.14,2.24-3.38,4.23-3.38,1.63,0,2.82.44,4.04,1.27l-.73,1.51c-1-.68-2.04-1.02-3.29-1.02s-2.36.68-2.36,1.61c0,1.17,1.31,1.44,2.7,1.73,2.14.49,4.36,1.29,4.36,3.63,0,2.51-2.56,3.63-4.87,3.63s-3.94-1.1-4.62-1.8v-.02Z"/>
      <path class="st1" d="M229.34,89.69v-6.77h-1.78v-1.53h1.78v-2.56l1.85-.34v2.9h4.04v1.53h-4.04v6.81c0,1.63.71,2.09,1.65,2.09,1.1,0,1.95-.66,1.95-.66l.61,1.44c-.46.32-1.44.88-2.73.88-2.09,0-3.33-1.02-3.33-3.8h0Z"/>
      <path class="st1" d="M242.53,85.33c0-4.5,3.53-8.1,8.23-8.1,2.09,0,4.02.75,5.43,2.02l-1.14,1.31c-1.19-1.02-2.6-1.56-4.16-1.56-3.65,0-6.33,2.85-6.33,6.33s2.68,6.38,6.21,6.38c1.83,0,3.48-.73,4.62-1.95l1.22,1.34c-1.46,1.46-3.5,2.38-5.84,2.38-4.7,0-8.23-3.6-8.23-8.15h0Z"/>
      <path class="st1" d="M257.75,87.33c0-3.46,2.75-6.18,6.23-6.18s6.23,2.73,6.23,6.18-2.75,6.16-6.23,6.16-6.23-2.73-6.23-6.16ZM268.31,87.33c0-2.51-1.87-4.38-4.33-4.38s-4.33,1.87-4.33,4.38,1.87,4.36,4.33,4.36,4.33-1.87,4.33-4.36Z"/>
      <path class="st1" d="M272.4,81.39h1.85v2.04c.66-1.29,2.14-2.29,3.8-2.29,1.9,0,3.24.83,3.8,2.51.85-1.73,2.7-2.51,4.09-2.51,2.85,0,4.36,1.65,4.36,4.92v7.18h-1.87v-6.94c0-2.02-.71-3.36-2.87-3.36-2,0-3.26,1.61-3.26,3.38v6.91h-1.87v-6.94c0-2.02-.71-3.36-2.85-3.36s-3.31,1.75-3.31,3.48v6.81h-1.85v-11.85l-.02.02Z"/>
      <path class="st1" d="M293.29,81.39h1.78v2.04c.88-1.53,2.6-2.29,4.53-2.29,3.29,0,5.6,2.7,5.6,6.16s-2.31,6.18-5.6,6.18c-1.87,0-3.58-.78-4.45-2.31v5.5h-1.85v-15.28h0ZM303.29,87.3c0-2.51-1.75-4.36-4.11-4.36s-4.04,1.87-4.04,4.36,1.78,4.38,4.04,4.38,4.11-1.85,4.11-4.38Z"/>
      <path class="st1" d="M306.84,87.33c0-3.48,2.31-6.18,5.6-6.18,1.9,0,3.58.78,4.45,2.31v-2.07h1.85v11.85h-1.85v-2.07c-.88,1.56-2.56,2.31-4.45,2.31-3.29,0-5.6-2.73-5.6-6.16h0ZM316.89,87.33c0-2.48-1.78-4.38-4.04-4.38s-4.11,1.85-4.11,4.38,1.75,4.36,4.11,4.36,4.04-1.87,4.04-4.36Z"/>
      <path class="st1" d="M321.84,81.39h1.85v2.02c.83-1.44,2.36-2.26,4.11-2.26,2.97,0,4.28,1.8,4.28,4.92v7.18h-1.85v-6.94c0-2.19-.8-3.36-2.94-3.36s-3.6,1.65-3.6,3.63v6.67h-1.85v-11.85h0Z"/>
      <path class="st1" d="M335.25,95.07c1.29,0,2.09-.36,2.9-2.07l.27-.54-5.33-11.07h1.92l3.72,7.96c.27.56.54,1.34.54,1.34,0,0,.37-.97.56-1.41l3.53-7.88h1.9l-5.65,12.44c-1.29,2.8-2.97,2.99-4.36,2.99v-1.75h0Z"/>
    </g>
  </g>
</svg>