<?xml version="1.0" standalone="no"?>
<!DOCTYPE svg PUBLIC "-//W3C//DTD SVG 20010904//EN"
 "http://www.w3.org/TR/2001/REC-SVG-20010904/DTD/svg10.dtd">
<svg version="1.0" xmlns="http://www.w3.org/2000/svg"
 width="700.000000pt" height="700.000000pt" viewBox="0 0 700.000000 700.000000"
 preserveAspectRatio="xMidYMid meet">
<metadata>
Created by potrace 1.11, written by Peter Selinger 2001-2013
</metadata>
<g transform="translate(0.000000,700.000000) scale(0.100000,-0.100000)"
fill="#000000" stroke="none">
<path d="M4140 6992 c0 -4 25 -8 55 -10 321 -16 552 -332 639 -872 4 -19 8
-44 10 -56 2 -12 8 -57 12 -100 4 -43 8 -90 9 -104 2 -14 3 -59 4 -100 l1 -76
124 -219 c67 -121 133 -238 146 -260 98 -175 103 -183 119 -177 70 25 252 175
335 277 l43 53 -3 118 c-2 122 -12 285 -18 319 -2 11 -7 47 -11 80 -4 32 -9
68 -11 80 -2 11 -7 35 -10 54 -13 80 -27 131 -65 245 -61 181 -167 348 -249
391 -14 7 -140 57 -280 110 -140 53 -268 103 -285 110 -67 29 -322 123 -350
129 -46 10 -215 16 -215 8z"/>
<path d="M4025 6980 c-19 -8 -19 -9 3 -9 12 -1 22 4 22 9 0 6 -1 10 -2 9 -2 0
-12 -4 -23 -9z"/>
<path d="M4093 6983 c9 -2 23 -2 30 0 6 3 -1 5 -18 5 -16 0 -22 -2 -12 -5z"/>
<path d="M3870 6939 c-194 -66 -406 -191 -584 -342 -198 -169 -538 -610 -776
-1007 -134 -223 -309 -557 -402 -765 -245 -550 -416 -1036 -566 -1615 -41
-156 -97 -401 -108 -467 -3 -19 -7 -44 -9 -53 -2 -10 -7 -40 -11 -67 -3 -26
-8 -57 -10 -68 -4 -19 -18 -129 -29 -228 -15 -134 -19 -236 -19 -497 -1 -278
5 -403 24 -505 5 -27 12 -70 15 -95 3 -25 11 -63 17 -85 5 -22 11 -47 13 -55
21 -107 81 -277 136 -384 60 -117 114 -193 195 -272 66 -65 80 -74 165 -103
157 -55 400 -141 469 -166 36 -13 103 -37 150 -53 47 -17 136 -48 198 -70 62
-23 120 -39 130 -37 225 46 549 192 742 334 173 128 383 320 475 436 22 27 46
56 52 63 49 51 223 304 223 323 0 5 -28 7 -62 4 -35 -3 -99 -7 -143 -10 -82
-5 -215 -14 -273 -20 -33 -3 -41 2 -47 32 -6 31 -126 548 -129 558 -2 8 -76
-95 -111 -158 -35 -60 -236 -337 -333 -457 -307 -380 -657 -646 -927 -707 -11
-2 -31 -7 -45 -11 -14 -3 -77 -6 -140 -5 -99 1 -125 4 -185 27 -66 25 -175 91
-175 105 0 4 -8 16 -17 27 -58 63 -133 189 -186 310 -30 68 -87 249 -101 319
-3 11 -9 40 -15 65 -5 25 -12 68 -15 95 -4 28 -8 66 -11 85 -26 193 -26 593 0
830 2 19 6 60 10 91 3 31 7 65 9 75 2 11 7 46 10 79 4 33 9 67 11 75 2 8 6 33
10 55 29 210 127 635 214 930 49 168 173 544 201 610 4 11 41 103 81 205 97
249 219 522 346 775 57 116 108 215 113 220 4 6 26 46 50 90 24 44 51 92 61
107 11 14 19 29 19 31 0 10 169 278 238 377 112 163 185 259 314 410 60 71
205 215 283 280 145 122 331 228 495 281 47 16 76 28 65 28 -11 0 -58 -13
-105 -30z"/>
<path d="M3613 6600 c-66 -40 -147 -184 -183 -324 -44 -175 -5 -280 88 -232
116 60 245 391 202 520 -19 57 -53 69 -107 36z"/>
<path d="M4462 6398 c-12 -6 -40 -37 -61 -69 -117 -175 -142 -505 -40 -517 90
-11 211 239 210 433 0 143 -33 189 -109 153z"/>
<path d="M2806 5829 c-90 -79 -155 -267 -148 -427 2 -42 41 -83 71 -75 86 22
192 249 192 414 1 113 -46 149 -115 88z"/>
<path d="M3438 5345 c-1 -2 -21 -6 -42 -9 -109 -17 -249 -85 -383 -185 -207
-155 -451 -481 -625 -836 -97 -200 -196 -483 -224 -640 -3 -16 -9 -46 -14 -65
-10 -39 -36 -211 -46 -305 -10 -95 -13 -355 -4 -410 4 -27 11 -70 14 -95 9
-65 49 -205 80 -278 72 -171 178 -281 316 -332 75 -27 76 -25 3 13 -190 98
-294 279 -349 607 -3 19 -7 130 -9 245 -3 171 0 228 15 310 10 55 20 114 23
130 9 60 78 319 111 418 168 506 408 884 722 1137 98 79 277 174 352 188 221
40 419 -56 538 -263 41 -70 35 -38 -9 50 -95 190 -227 298 -379 311 -35 3 -68
7 -75 9 -6 2 -13 2 -15 0z"/>
<path d="M3488 5008 c-70 -9 -159 -45 -235 -94 -57 -38 -207 -180 -272 -259
-51 -61 -192 -278 -253 -390 -57 -103 -161 -312 -164 -330 -2 -5 -14 -46 -28
-90 -30 -90 -92 -339 -101 -400 -4 -22 -8 -47 -10 -55 -2 -8 -7 -37 -10 -65
-4 -27 -10 -77 -15 -110 -12 -94 -9 -323 5 -404 34 -190 106 -321 218 -396 28
-19 52 -33 54 -31 2 1 -1 25 -6 52 -22 116 -30 286 -17 394 3 25 8 72 11 105
25 226 127 682 184 820 5 11 25 65 46 120 160 426 417 787 722 1017 l102 76
-42 17 c-60 24 -123 32 -189 23z"/>
<path d="M2220 4683 c-37 -26 -57 -52 -89 -113 -61 -121 -86 -306 -47 -349 27
-30 50 -26 94 13 74 67 132 227 129 357 -2 67 -5 83 -21 95 -26 18 -36 18 -66
-3z"/>
<path d="M1834 3390 c-97 -39 -205 -321 -172 -451 12 -45 45 -67 77 -49 115
61 220 390 153 479 -22 29 -30 32 -58 21z"/>
<path d="M1703 2231 c-123 -126 -183 -423 -95 -470 42 -22 120 61 167 177 91
223 44 413 -72 293z"/>
<path d="M2881 1514 c-100 -84 -171 -348 -138 -514 10 -51 41 -90 70 -90 97 0
212 275 201 482 -7 131 -62 182 -133 122z"/>
<path d="M1985 1336 c-136 -58 -234 -498 -134 -605 52 -56 147 37 199 194 77
235 42 456 -65 411z"/>
</g>
</svg>
